HIERARCHY
ROOT Hips
{
    OFFSET 0.000000 0.000000 0.000000
    CHANNELS 6 Xposition Yposition Zposition Zrotation Xrotation Yrotation
    JOINT Spine
    {
        OFFSET -0.000000 0.081015 0.000000
        CHANNELS 3 Zrotation Xrotation Yrotation
        JOINT Spine1
        {
            OFFSET -0.000000 0.240812 0.000000
            CHANNELS 3 Zrotation Xrotation Yrotation
            JOINT Neck
            {
                OFFSET -0.000000 0.239823 0.021802
                CHANNELS 3 Zrotation Xrotation Yrotation
                JOINT Head
                {
                    OFFSET -0.000000 0.148909 -0.021273
                    CHANNELS 3 Zrotation Xrotation Yrotation
                    End Site
                    {
                        OFFSET -0.000000 0.197598 0.000000
                    }
                }
            }
            JOINT LeftShoulder
            {
                OFFSET 0.039829 0.224972 -0.001181
                CHANNELS 3 Zrotation Xrotation Yrotation
                JOINT LeftArm
                {
                    OFFSET 0.107364 0.000000 0.000000
                    CHANNELS 3 Zrotation Xrotation Yrotation
                    JOINT LeftForeArm
                    {
                        OFFSET 0.283104 0.000000 0.000000
                        CHANNELS 3 Zrotation Xrotation Yrotation
                        JOINT LeftHand
                        {
                            OFFSET 0.324767 0.000000 0.000000
                            CHANNELS 3 Zrotation Xrotation Yrotation
                            End Site
                            {
                                OFFSET 0.148198 0.000000 0.000000
                            }
                        }
                    }
                }
            }
            JOINT RightShoulder
            {
                OFFSET -0.039119 0.224972 -0.001181
                CHANNELS 3 Zrotation Xrotation Yrotation
                JOINT RightArm
                {
                    OFFSET -0.107364 0.000000 0.000000
                    CHANNELS 3 Zrotation Xrotation Yrotation
                    JOINT RightForeArm
                    {
                        OFFSET -0.283104 0.000000 0.000000
                        CHANNELS 3 Zrotation Xrotation Yrotation
                        JOINT RightHand
                        {
                            OFFSET -0.324767 0.000000 0.000000
                            CHANNELS 3 Zrotation Xrotation Yrotation
                            End Site
                            {
                                OFFSET -0.148198 0.000000 0.000000
                            }
                        }
                    }
                }
            }
        }
    }
    JOINT LeftUpLeg
    {
        OFFSET 0.098799 0.000000 0.000000
        CHANNELS 3 Zrotation Xrotation Yrotation
        JOINT LeftLeg
        {
            OFFSET -0.000000 -0.332632 0.000000
            CHANNELS 3 Zrotation Xrotation Yrotation
            JOINT LeftFoot
            {
                OFFSET -0.000000 -0.498967 0.000000
                CHANNELS 3 Zrotation Xrotation Yrotation
                JOINT LeftToeBase
                {
                    OFFSET -0.000000 -0.064219 0.148198
                    CHANNELS 3 Zrotation Xrotation Yrotation
                    End Site
                    {
                        OFFSET -0.000000 0.000000 0.039520
                    }
                }
            }
        }
    }
    JOINT RightUpLeg
    {
        OFFSET -0.098799 0.000000 0.000000
        CHANNELS 3 Zrotation Xrotation Yrotation
        JOINT RightLeg
        {
            OFFSET -0.000000 -0.332632 0.000000
            CHANNELS 3 Zrotation Xrotation Yrotation
            JOINT RightFoot
            {
                OFFSET -0.000000 -0.498967 0.000000
                CHANNELS 3 Zrotation Xrotation Yrotation
                JOINT RightToeBase
                {
                    OFFSET -0.000000 -0.064219 0.148198
                    CHANNELS 3 Zrotation Xrotation Yrotation
                    End Site
                    {
                        OFFSET -0.000000 0.000000 0.039520
                    }
                }
            }
        }
    }
}
MOTION
Frames:    6
Frame Time:    0.010000
-0.081657    0.840466    -0.119311    -3.767420    -4.943494    -54.350311    -0.077422    0.550079    13.905066    -4.040534    15.281253    5.178955    -7.595687    36.207916    12.688443    -6.878574    -5.192495    10.403349    -13.975936    7.781610    -0.636679    -37.154709    -15.794027    -6.991874    36.324940    -43.483860    -99.851982    61.255260    -3.955846    -4.653644    2.695675    21.297348    14.171063    19.677021    33.990726    34.432285    -113.518875    -27.264820    -10.266513    -49.432877    -33.411171    -18.652304    18.401392    -19.030357    11.200519    -6.850339    35.451252    -4.641179    -9.768363    -9.793668    12.250310    0.000000    0.000000    0.000000    -23.876644    -8.961090    -12.430568    11.948483    40.053692    -13.859084    10.619152    -14.585520    -5.441786    0.000000    0.000000    0.000000    
-0.082628    0.839601    -0.120593    -3.935748    -5.101968    -54.316406    0.177887    0.431269    14.024720    -4.317738    15.763840    5.274660    -7.795391    36.244400    12.694554    -6.825479    -5.233113    10.373675    -14.115536    8.087709    -0.530769    -37.192699    -15.853766    -6.739933    35.834782    -43.086983    -100.348045    61.186562    -3.822286    -4.846345    2.478354    21.154699    14.433411    19.713213    33.979939    34.257648    -113.185677    -27.710802    -9.579327    -49.142067    -33.018139    -18.358580    18.734610    -18.987392    11.731662    -6.874730    35.821705    -4.817686    -9.868621    -9.683781    11.824965    0.000000    0.000000    0.000000    -24.263786    -8.775738    -12.345501    12.843733    40.257881    -14.831308    10.646206    -14.660585    -4.865391    0.000000    0.000000    0.000000    
-0.083640    0.838759    -0.121840    -4.090711    -5.241058    -54.299389    0.415060    0.276380    14.120936    -4.556113    16.234913    5.358829    -8.066920    36.324669    12.753436    -6.737793    -5.296136    10.385604    -14.373574    8.436476    -0.306842    -37.062874    -15.987025    -6.590485    35.112694    -42.535583    -101.056656    61.096611    -3.666043    -5.059027    2.196537    21.222723    14.685594    19.746628    33.624146    34.150578    -112.663658    -28.184235    -8.655585    -48.811886    -32.440723    -17.771460    19.082022    -18.889160    11.900712    -7.191874    36.045563    -4.537149    -10.075803    -9.699031    11.560675    0.000000    0.000000    0.000000    -24.581795    -8.621000    -12.837617    13.122522    40.577114    -15.423284    10.833053    -14.615461    -3.823881    0.000000    0.000000    0.000000    
-0.084660    0.837824    -0.123144    -4.218197    -5.394226    -54.293255    0.537777    0.138060    14.202724    -4.662643    16.600100    5.416389    -8.390659    36.542248    12.838719    -6.744772    -5.458027    10.378098    -14.558970    8.848260    -0.194353    -37.125381    -16.024126    -6.282375    34.039608    -42.158203    -102.062904    60.828854    -4.187323    -5.531059    1.900111    21.250664    14.986186    19.851761    33.298027    33.898319    -112.137108    -28.554338    -7.701362    -48.374428    -31.763044    -17.189356    19.431770    -18.796831    12.058083    -7.567989    36.268234    -4.274195    -10.200863    -9.674970    11.296678    0.000000    0.000000    0.000000    -24.847391    -8.423900    -13.733762    12.898808    40.898975    -15.911802    11.200850    -14.623790    -2.211786    0.000000    0.000000    0.000000    
-0.085672    0.836890    -0.124451    -4.342474    -5.544480    -54.287476    0.646871    0.009745    14.242335    -4.810684    16.966198    5.466756    -8.615438    36.739857    12.911921    -6.824576    -5.622759    10.364997    -14.679616    9.158829    -0.066822    -37.149158    -15.757677    -5.979939    34.029243    -42.040306    -102.196831    60.466122    -3.929160    -5.579453    1.681743    21.030617    15.259733    20.020897    33.212135    33.553223    -111.652328    -28.876152    -6.821648    -47.665092    -31.167189    -16.697811    19.772192    -18.714043    12.226779    -7.918442    36.499226    -4.017977    -10.286331    -9.644630    11.023458    0.000000    0.000000    0.000000    -25.093557    -8.317696    -14.882183    12.378459    41.398232    -15.729072    11.549682    -14.610784    -0.918530    0.000000    0.000000    0.000000    
-0.086644    0.835950    -0.125721    -4.430020    -5.703649    -54.285160    0.695422    -0.106653    14.266774    -4.932785    17.258335    5.505899    -8.903470    37.022255    12.999781    -6.807722    -5.863451    10.358294    -14.827991    9.460165    0.050991    -37.125587    -15.456338    -5.679499    33.949730    -41.898849    -102.386742    60.330574    -3.796555    -5.772124    1.502822    20.925085    15.584641    20.079903    33.089306    33.141075    -111.214081    -29.119104    -6.011413    -48.018177    -30.446243    -16.209003    20.062992    -18.640474    12.414880    -8.157226    36.796524    -3.878494    -9.327184    -8.941594    10.421572    0.000000    0.000000    0.000000    -25.396265    -8.238069    -15.898455    11.994040    41.888893    -15.292635    11.769807    -14.689395    -0.039539    0.000000    0.000000    0.000000    
